# xmcd
#
# Track frame offsets:
#   150
#   20663
#   41556
#   60535
#   77759
#   94867
#   116761
#   133807
#   152645
#   175519
#   192610
#   216528
#   236800
#
# Disc length: 3451 seconds
#
# Revision: 0
# Processed by: cddbd v1.5.1PL0 Copyright (c) Steve Scherf et al.
# Submitted via: Media_Universe 3.0
#
DISCID=ba0d790d
DTITLE=Lara Fabian - Adagio
DYEAR=1900
DGENRE=Blues
TTITLE0=Adagio
TTITLE1=Part of me
TTITLE2=Givin' up on you
TTITLE3=You are my heart
TTITLE4=I am who I am
TTITLE5=To love again
TTITLE6=You're not from here
TTITLE7=Till I get over you
TTITLE8=Love by grace
TTITLE9=Yeuel (my angel)
TTITLE10=I will love again
TTITLE11=Broken vow
TTITLE12=Adagio (italian)
EXTD=
EXTT0=
EXTT1=
EXTT2=
EXTT3=
EXTT4=
EXTT5=
EXTT6=
EXTT7=
EXTT8=
EXTT9=
EXTT10=
EXTT11=
EXTT12=
PLAYORDER=
